<svg xmlns="http://www.w3.org/2000/svg" width="804" height="1024" viewBox="0 0 804 1024"><path d="M795.648 694.272q-21.504 71.68-69.632 142.336-73.728 112.64-147.456 112.64-27.648 0-79.872-18.432-49.152-18.432-86.016-18.432-34.816 0-80.896 19.456-47.104 19.456-75.776 19.456-87.04 0-172.032-148.48Q0 653.312 0 515.072 0 385.024 64.512 302.08t162.816-82.944q40.96 0 100.352 17.408t78.848 17.408q25.6 0 81.92-19.456 58.368-19.456 99.328-19.456 67.584 0 121.856 36.864 29.696 20.48 59.392 57.344-46.08 37.888-65.536 67.584-36.864 53.248-36.864 117.76 0 71.68 38.912 128t90.112 71.68zM581.632 23.552q0 34.816-17.408 77.824-16.384 43.008-53.248 78.848-30.72 30.72-61.44 41.984-20.48 6.144-59.392 9.216 2.048-84.992 45.056-146.432Q477.184 23.552 577.536 0q1.024 2.048 2.048 6.144t1.024 6.144v6.144q0 3.072 1.024 5.12z"/></svg>