<svg xmlns="http://www.w3.org/2000/svg" width="731" height="1024" viewBox="0 0 731 1024"><path d="M571.392 247.808l21.504-110.592q2.048-13.312-5.12-22.528t-20.48-10.24H160.768q-13.312 0-22.528 10.24t-8.192 20.48v629.76q0 4.096 3.072 0l165.888-200.704q13.312-15.36 22.528-19.456t26.624-4.096h137.216q12.288 0 20.48-8.192t10.24-17.408q14.336-73.728 21.504-108.544 2.048-12.288-6.144-22.528t-21.504-11.264H342.016q-16.384 0-26.624-11.264t-11.264-26.624v-24.576q0-16.384 11.264-26.624t26.624-11.264h197.632q10.24 0 20.48-7.168t11.264-17.408zM701.44 120.832q-9.216 41.984-30.72 152.576t-39.936 199.68-19.456 99.328q-4.096 13.312-5.12 18.432t-8.192 19.456-14.336 18.432-21.504 12.288-33.792 5.12H373.76q-7.168 0-12.288 6.144-5.12 5.12-243.712 281.6-12.288 14.336-33.792 16.384T56.32 947.2Q25.6 934.912 25.6 891.904V86.016q0-31.744 21.504-58.368T115.712 0h506.88q54.272 0 72.704 30.72t6.144 90.112zm0 0l-90.112 451.584q2.048-9.216 19.456-99.328t39.936-199.68 30.72-152.576z"/></svg>