<svg xmlns="http://www.w3.org/2000/svg" width="950" height="1024" viewBox="0 0 950 1024"><path d="M419.84 454.656q0 20.48 18.432 40.96t44.032 37.888 52.224 41.984 44.032 60.416 18.432 80.896q0 51.2-27.648 98.304-40.96 69.632-120.832 103.424t-169.984 32.768q-75.776 0-141.312-24.576t-97.28-77.824q-21.504-34.816-21.504-74.752 0-47.104 25.6-86.016t67.584-65.536q74.752-47.104 230.4-57.344-18.432-24.576-26.624-41.984t-9.216-41.984q0-20.48 12.288-49.152-26.624 3.072-38.912 3.072-84.992 0-142.336-55.296T78.848 239.616q0-46.08 20.48-90.112t56.32-74.752q44.032-37.888 104.448-56.32T385.024 0h238.592l-78.848 50.176h-74.752q41.984 35.84 63.488 75.776t21.504 92.16q0 40.96-13.312 73.728t-33.792 53.248-39.936 36.864-33.792 34.816-14.336 37.888zm-82.944-54.272q21.504 0 44.032-10.24t37.888-24.576q30.72-32.768 30.72-91.136 0-32.768-10.24-70.656t-27.648-74.752-48.128-58.368-66.56-23.552q-24.576 0-47.104 11.264t-37.888 29.696q-26.624 33.792-26.624 91.136 0 26.624 5.12 56.32t18.432 58.368 29.696 53.248 43.008 37.888 55.296 15.36zm1.024 498.688q32.768 0 63.488-7.168t56.32-22.528 41.984-41.984 15.36-62.464q0-14.336-4.096-27.648t-8.192-24.576-15.36-23.552-16.384-19.456-22.528-20.48-20.48-16.384-23.552-16.384-21.504-15.36q-8.192-1.024-26.624-1.024-30.72 0-60.416 4.096t-61.44 14.336-55.296 25.6-38.912 43.008-15.36 60.416q0 39.936 19.456 70.656t52.224 47.104 68.608 25.6 72.704 8.192zm462.848-500.736h121.856v61.44H800.768v124.928h-60.416V459.776H619.52v-61.44h120.832V274.432h60.416v123.904z"/></svg>