<svg xmlns="http://www.w3.org/2000/svg" width="878" height="1024" viewBox="0 0 878 1024"><path d="M778.24 815.104V444.416h-76.8q11.264 35.84 11.264 74.752 0 72.704-36.864 133.12t-99.328 96.256-137.216 35.84q-112.64 0-192.512-77.824t-79.872-187.392q0-38.912 11.264-74.752H97.28v370.688q0 14.336 10.24 24.576t25.6 10.24h610.304q14.336 0 24.576-10.24t10.24-24.576zM616.448 509.952q0-70.656-52.224-120.832t-124.928-50.176-123.904 50.176-52.224 120.832 52.224 120.832 123.904 50.176q73.728 0 124.928-50.176t52.224-120.832zM778.24 304.128V209.92q0-15.36-11.264-27.648t-27.648-11.264H638.976q-16.384 0-27.648 11.264t-11.264 27.648v94.208q0 17.408 11.264 28.672t27.648 11.264h100.352q16.384 0 27.648-11.264t11.264-28.672zm99.328-118.784v653.312q0 46.08-32.768 78.848t-79.872 33.792H112.64q-46.08 0-79.872-33.792T0 838.656V185.344q0-46.08 32.768-78.848t79.872-33.792h652.288q46.08 0 79.872 33.792t32.768 78.848z"/></svg>