<svg xmlns="http://www.w3.org/2000/svg" width="878" height="1024" viewBox="0 0 878 1024"><path d="M199.68 357.376v566.272H11.264V357.376H199.68zm12.288-175.104q0 41.984-29.696 69.632t-76.8 27.648h-1.024q-47.104 0-75.776-27.648T0 182.272t29.696-69.632 76.8-27.648 75.776 27.648 29.696 69.632zm665.6 416.768v324.608H690.176V620.544q0-60.416-23.552-94.208t-72.704-33.792q-35.84 0-59.392 19.456t-36.864 49.152q-6.144 17.408-6.144 46.08v316.416H303.104q1.024-228.352 1.024-369.664t0-168.96l-1.024-27.648H491.52v81.92h-1.024q11.264-18.432 23.552-31.744t31.744-29.696 50.176-24.576 65.536-9.216q97.28 0 156.672 64.512t59.392 190.464z"/></svg>