<svg xmlns="http://www.w3.org/2000/svg" width="878" height="1024" viewBox="0 0 878 1024"><path d="M877.568 768v72.704q0 15.36-10.24 25.6t-26.624 11.264H36.864q-15.36 0-25.6-11.264T0 840.704V768q0-15.36 11.264-25.6t25.6-11.264h803.84q15.36 0 26.624 11.264t10.24 25.6zm0-292.864v73.728q0 14.336-10.24 25.6t-26.624 10.24H36.864q-15.36 0-25.6-10.24T0 548.864v-73.728q0-14.336 11.264-25.6t25.6-10.24h803.84q15.36 0 26.624 10.24t10.24 25.6zm0-291.84V256q0 15.36-10.24 25.6t-26.624 11.264H36.864q-15.36 0-25.6-11.264T0 256v-72.704q0-15.36 11.264-26.624t25.6-10.24h803.84q15.36 0 26.624 10.24t10.24 26.624z"/></svg>