<svg xmlns="http://www.w3.org/2000/svg" width="804" height="1024" viewBox="0 0 804 1024"><path d="M219.136 768q0 46.08-31.744 77.824t-77.824 31.744-77.824-31.744T0 768t31.744-77.824 77.824-31.744 77.824 31.744T219.136 768zM512 838.656q1.024 15.36-9.216 26.624-11.264 12.288-27.648 12.288h-76.8q-14.336 0-24.576-9.216T362.496 844.8q-12.288-131.072-105.472-224.256T32.768 515.072q-14.336-1.024-23.552-11.264T0 479.232v-76.8q0-16.384 12.288-26.624 9.216-10.24 24.576-10.24h3.072q91.136 7.168 174.08 46.08t148.48 103.424q64.512 64.512 103.424 148.48T512 838.656zm292.864 1.024q1.024 15.36-10.24 26.624-10.24 11.264-26.624 11.264h-81.92q-14.336 0-25.6-10.24t-11.264-23.552q-6.144-122.88-57.344-233.472T459.776 417.792 267.264 285.696 34.816 227.328q-14.336 0-24.576-11.264T0 191.488v-81.92q0-15.36 11.264-26.624 10.24-10.24 25.6-10.24h1.024q150.528 8.192 286.72 68.608T568.32 309.248Q674.816 415.744 736.256 552.96t68.608 286.72z"/></svg>