<svg xmlns="http://www.w3.org/2000/svg" width="950" height="1024" viewBox="0 0 950 1024"><path d="M925.696 233.472q-37.888 55.296-92.16 95.232v23.552q0 74.752-21.504 148.48t-65.536 142.336T641.024 762.88t-147.456 83.968-185.344 30.72q-154.624 0-282.624-82.944 19.456 3.072 44.032 3.072 129.024 0 229.376-78.848-60.416-2.048-107.52-36.864t-65.536-91.136q19.456 2.048 34.816 2.048 24.576 0 49.152-6.144-64.512-13.312-106.496-63.488T61.44 405.504v-2.048q38.912 21.504 83.968 23.552-37.888-25.6-60.416-65.536t-22.528-88.064q0-50.176 25.6-93.184Q157.696 265.216 256 316.416t212.992 56.32q-5.12-21.504-5.12-41.984 0-76.8 54.272-130.048t130.048-54.272q80.896 0 135.168 58.368 62.464-12.288 116.736-45.056-20.48 65.536-80.896 102.4 53.248-6.144 106.496-28.672z"/></svg>