<svg xmlns="http://www.w3.org/2000/svg" width="950" height="1024" viewBox="0 0 950 1024"><path d="M439.296 200.704v622.592q0 14.336-11.264 25.6t-25.6 10.24-25.6-10.24L186.368 658.432H36.864q-15.36 0-25.6-11.264T0 621.568V402.432q0-15.36 11.264-25.6t25.6-11.264h149.504l190.464-190.464q10.24-10.24 25.6-10.24t25.6 10.24 11.264 25.6zM658.432 512q0 43.008-24.576 80.896t-64.512 53.248q-5.12 3.072-14.336 3.072-14.336 0-25.6-10.24t-10.24-26.624q0-12.288 6.144-20.48t17.408-14.336 19.456-12.288 16.384-20.48T584.704 512t-6.144-32.768-16.384-20.48-19.456-12.288-17.408-14.336-6.144-20.48q0-15.36 10.24-26.624t25.6-10.24q9.216 0 14.336 3.072 39.936 15.36 64.512 53.248T658.432 512zm146.432 0q0 87.04-49.152 161.792t-128 107.52q-8.192 3.072-14.336 3.072-15.36 0-26.624-11.264t-10.24-25.6q0-22.528 21.504-33.792 32.768-16.384 44.032-25.6 41.984-30.72 65.536-76.8T731.136 512t-23.552-99.328-65.536-76.8q-11.264-9.216-44.032-25.6-21.504-11.264-21.504-33.792 0-14.336 10.24-25.6t25.6-11.264q7.168 0 15.36 3.072 79.872 33.792 128 107.52T804.864 512zm146.432 0q0 131.072-72.704 241.664T685.056 915.456q-7.168 3.072-14.336 3.072-15.36 0-26.624-11.264t-10.24-25.6q0-20.48 22.528-33.792 4.096-2.048 12.288-6.144t13.312-6.144q25.6-14.336 46.08-28.672 70.656-52.224 110.592-130.048T877.568 512t-38.912-164.864-110.592-130.048q-20.48-14.336-46.08-28.672-4.096-3.072-13.312-6.144t-12.288-6.144q-22.528-13.312-22.528-33.792 0-14.336 10.24-25.6t26.624-11.264q7.168 0 14.336 3.072 120.832 52.224 193.536 161.792T951.296 512z"/></svg>