<svg xmlns="http://www.w3.org/2000/svg" width="657" height="1024" viewBox="0 0 657 1024"><path d="M439.296 200.704v622.592q0 14.336-11.264 25.6t-25.6 10.24-25.6-10.24L186.368 658.432H36.864q-15.36 0-25.6-11.264T0 621.568V402.432q0-15.36 11.264-25.6t25.6-11.264h149.504l190.464-190.464q10.24-10.24 25.6-10.24t25.6 10.24 11.264 25.6zM658.432 512q0 43.008-24.576 80.896t-64.512 53.248q-5.12 3.072-14.336 3.072-14.336 0-25.6-10.24t-10.24-26.624q0-12.288 6.144-20.48t17.408-14.336 19.456-12.288 16.384-20.48T584.704 512t-6.144-32.768-16.384-20.48-19.456-12.288-17.408-14.336-6.144-20.48q0-15.36 10.24-26.624t25.6-10.24q9.216 0 14.336 3.072 39.936 15.36 64.512 53.248T658.432 512z"/></svg>