<svg xmlns="http://www.w3.org/2000/svg" xmlns:xlink="http://www.w3.org/1999/xlink" id="rwpod-sprite" style="display:none"><symbol id='search-svg-icon' viewBox='0 0 13 13'><title>search</title><path d="m4.8495 7.8226c0.82666 0 1.5262-0.29146 2.0985-0.87438 0.57232-0.58292 0.86378-1.2877 0.87438-2.1144 0.010599-0.82666-0.28086-1.5262-0.87438-2.0985-0.59352-0.57232-1.293-0.86378-2.0985-0.87438-0.8055-0.010599-1.5103 0.28086-2.1144 0.87438-0.60414 0.59352-0.8956 1.293-0.87438 2.0985 0.021197 0.8055 0.31266 1.5103 0.87438 2.1144 0.56172 0.60414 1.2665 0.8956 2.1144 0.87438zm4.4695 0.2115 3.681 3.6819-1.259 1.284-3.6817-3.7 0.0019784-0.69479-0.090043-0.098846c-0.87973 0.76087-1.92 1.1413-3.1207 1.1413-1.3553 0-2.5025-0.46363-3.4417-1.3909s-1.4088-2.0686-1.4088-3.4239c0-1.3553 0.4696-2.4966 1.4088-3.4239 0.9392-0.92727 2.0864-1.3969 3.4417-1.4088 1.3553-0.011889 2.4906 0.45771 3.406 1.4088 0.9154 0.95107 1.379 2.0924 1.3909 3.4239 0 1.2126-0.38043 2.2588-1.1413 3.1385l0.098834 0.090049z"></path></symbol><symbol id='volume-off-svg-icon' viewBox='0 0 438 1024'><path d="M439.296 200.704v622.592q0 14.336-11.264 25.6t-25.6 10.24-25.6-10.24L186.368 658.432H36.864q-15.36 0-25.6-11.264T0 621.568V402.432q0-15.36 11.264-25.6t25.6-11.264h149.504l190.464-190.464q10.24-10.24 25.6-10.24t25.6 10.24 11.264 25.6z"></path></symbol><symbol id='volume-down-svg-icon' viewBox='0 0 657 1024'><path d="M439.296 200.704v622.592q0 14.336-11.264 25.6t-25.6 10.24-25.6-10.24L186.368 658.432H36.864q-15.36 0-25.6-11.264T0 621.568V402.432q0-15.36 11.264-25.6t25.6-11.264h149.504l190.464-190.464q10.24-10.24 25.6-10.24t25.6 10.24 11.264 25.6zM658.432 512q0 43.008-24.576 80.896t-64.512 53.248q-5.12 3.072-14.336 3.072-14.336 0-25.6-10.24t-10.24-26.624q0-12.288 6.144-20.48t17.408-14.336 19.456-12.288 16.384-20.48T584.704 512t-6.144-32.768-16.384-20.48-19.456-12.288-17.408-14.336-6.144-20.48q0-15.36 10.24-26.624t25.6-10.24q9.216 0 14.336 3.072 39.936 15.36 64.512 53.248T658.432 512z"></path></symbol><symbol id='foursquare-svg-icon' viewBox='0 0 731 1024'><path d="M571.392 247.808l21.504-110.592q2.048-13.312-5.12-22.528t-20.48-10.24H160.768q-13.312 0-22.528 10.24t-8.192 20.48v629.76q0 4.096 3.072 0l165.888-200.704q13.312-15.36 22.528-19.456t26.624-4.096h137.216q12.288 0 20.48-8.192t10.24-17.408q14.336-73.728 21.504-108.544 2.048-12.288-6.144-22.528t-21.504-11.264H342.016q-16.384 0-26.624-11.264t-11.264-26.624v-24.576q0-16.384 11.264-26.624t26.624-11.264h197.632q10.24 0 20.48-7.168t11.264-17.408zM701.44 120.832q-9.216 41.984-30.72 152.576t-39.936 199.68-19.456 99.328q-4.096 13.312-5.12 18.432t-8.192 19.456-14.336 18.432-21.504 12.288-33.792 5.12H373.76q-7.168 0-12.288 6.144-5.12 5.12-243.712 281.6-12.288 14.336-33.792 16.384T56.32 947.2Q25.6 934.912 25.6 891.904V86.016q0-31.744 21.504-58.368T115.712 0h506.88q54.272 0 72.704 30.72t6.144 90.112zm0 0l-90.112 451.584q2.048-9.216 19.456-99.328t39.936-199.68 30.72-152.576z"></path></symbol><symbol id='github-svg-icon' viewBox='0 0 950 1024'><path d="M365.568 695.296q0 22.528-7.168 46.08t-24.576 44.032-40.96 19.456-41.984-19.456-24.576-44.032-7.168-46.08 7.168-47.104 24.576-44.032 41.984-19.456 40.96 19.456 24.576 44.032 7.168 47.104zm365.568 0q0 22.528-7.168 46.08t-24.576 44.032-40.96 19.456-41.984-19.456-24.576-44.032-7.168-46.08 7.168-47.104 24.576-44.032 41.984-19.456 40.96 19.456 24.576 44.032 7.168 47.104zm92.16 0q0-68.608-39.936-116.736t-106.496-48.128q-23.552 0-111.616 12.288-40.96 6.144-90.112 6.144t-89.088-6.144q-87.04-12.288-111.616-12.288-67.584 0-106.496 48.128T128 695.296q0 50.176 18.432 87.04t46.08 59.392 69.632 33.792 79.872 17.408 84.992 4.096h96.256q47.104 0 84.992-4.096t79.872-17.408 70.656-33.792 46.08-59.392 18.432-87.04zm128-101.376q0 118.784-34.816 189.44-22.528 44.032-60.416 75.776t-80.896 49.152-97.28 27.648-98.304 12.288-95.232 3.072q-44.032 0-80.896-2.048t-83.968-7.168-87.04-17.408T153.6 896t-68.608-47.104T35.84 783.36Q0 712.704 0 593.92q0-135.168 77.824-226.304-15.36-46.08-15.36-96.256 0-66.56 28.672-124.928 62.464 0 108.544 22.528t108.544 70.656q83.968-20.48 176.128-20.48 84.992 0 159.744 18.432 60.416-47.104 107.52-68.608t107.52-22.528q29.696 58.368 29.696 124.928 0 49.152-15.36 95.232 77.824 92.16 77.824 227.328z"></path></symbol><symbol id='gplus-svg-icon' viewBox='0 0 950 1024'><path d="M419.84 454.656q0 20.48 18.432 40.96t44.032 37.888 52.224 41.984 44.032 60.416 18.432 80.896q0 51.2-27.648 98.304-40.96 69.632-120.832 103.424t-169.984 32.768q-75.776 0-141.312-24.576t-97.28-77.824q-21.504-34.816-21.504-74.752 0-47.104 25.6-86.016t67.584-65.536q74.752-47.104 230.4-57.344-18.432-24.576-26.624-41.984t-9.216-41.984q0-20.48 12.288-49.152-26.624 3.072-38.912 3.072-84.992 0-142.336-55.296T78.848 239.616q0-46.08 20.48-90.112t56.32-74.752q44.032-37.888 104.448-56.32T385.024 0h238.592l-78.848 50.176h-74.752q41.984 35.84 63.488 75.776t21.504 92.16q0 40.96-13.312 73.728t-33.792 53.248-39.936 36.864-33.792 34.816-14.336 37.888zm-82.944-54.272q21.504 0 44.032-10.24t37.888-24.576q30.72-32.768 30.72-91.136 0-32.768-10.24-70.656t-27.648-74.752-48.128-58.368-66.56-23.552q-24.576 0-47.104 11.264t-37.888 29.696q-26.624 33.792-26.624 91.136 0 26.624 5.12 56.32t18.432 58.368 29.696 53.248 43.008 37.888 55.296 15.36zm1.024 498.688q32.768 0 63.488-7.168t56.32-22.528 41.984-41.984 15.36-62.464q0-14.336-4.096-27.648t-8.192-24.576-15.36-23.552-16.384-19.456-22.528-20.48-20.48-16.384-23.552-16.384-21.504-15.36q-8.192-1.024-26.624-1.024-30.72 0-60.416 4.096t-61.44 14.336-55.296 25.6-38.912 43.008-15.36 60.416q0 39.936 19.456 70.656t52.224 47.104 68.608 25.6 72.704 8.192zm462.848-500.736h121.856v61.44H800.768v124.928h-60.416V459.776H619.52v-61.44h120.832V274.432h60.416v123.904z"></path></symbol><symbol id='envelope-svg-icon' viewBox='0 0 50 50'><path opacity=".9" d="M31.796 24.244l9.97 9.97-1.415 1.414-9.97-9.97z"></path><path opacity=".9" d="M18.278 24.287l1.414 1.414-9.9 9.9-1.414-1.41z"></path><path d="M25 29.9c-1.5 0-3.1-.6-4.2-1.8L8.3 15.7l1.4-1.4 12.5 12.5c1.6 1.6 4.1 1.6 5.7 0l12.5-12.5 1.4 1.4-12.6 12.5c-1.1 1.1-2.7 1.7-4.2 1.7z"></path><path d="M39 38H11c-1.7 0-3-1.3-3-3V15c0-1.7 1.3-3 3-3h28c1.7 0 3 1.3 3 3v20c0 1.7-1.3 3-3 3zM11 14c-.6 0-1 .4-1 1v20c0 .6.4 1 1 1h28c.6 0 1-.4 1-1V15c0-.6-.4-1-1-1H11z"></path></symbol><symbol id='telegram-svg-icon' viewBox='0 0 50 50'><path d="M37.1 13L9.4 24c-.9.3-.8 1.6.1 1.9l7 2.2 2.8 8.8c.2.7 1.1.9 1.6.4l4.1-3.8 7.8 5.7c.6.4 1.4.1 1.6-.6l5.4-23.2c.3-1.7-1.2-3-2.7-2.4zM20.9 29.8L20 35l-2-7.2L37.5 15 20.9 29.8z"></path></symbol><symbol id='rss-svg-icon' viewBox='0 0 804 1024'><path d="M219.136 768q0 46.08-31.744 77.824t-77.824 31.744-77.824-31.744T0 768t31.744-77.824 77.824-31.744 77.824 31.744T219.136 768zM512 838.656q1.024 15.36-9.216 26.624-11.264 12.288-27.648 12.288h-76.8q-14.336 0-24.576-9.216T362.496 844.8q-12.288-131.072-105.472-224.256T32.768 515.072q-14.336-1.024-23.552-11.264T0 479.232v-76.8q0-16.384 12.288-26.624 9.216-10.24 24.576-10.24h3.072q91.136 7.168 174.08 46.08t148.48 103.424q64.512 64.512 103.424 148.48T512 838.656zm292.864 1.024q1.024 15.36-10.24 26.624-10.24 11.264-26.624 11.264h-81.92q-14.336 0-25.6-10.24t-11.264-23.552q-6.144-122.88-57.344-233.472T459.776 417.792 267.264 285.696 34.816 227.328q-14.336 0-24.576-11.264T0 191.488v-81.92q0-15.36 11.264-26.624 10.24-10.24 25.6-10.24h1.024q150.528 8.192 286.72 68.608T568.32 309.248Q674.816 415.744 736.256 552.96t68.608 286.72z"></path></symbol><symbol id='close-svg-icon' viewBox='0 0 50 50'><path d="M37.304 11.282l1.414 1.414-26.022 26.02-1.414-1.413z"></path><path d="M12.696 11.282l26.022 26.02-1.414 1.415-26.022-26.02z"></path></symbol><symbol id='instagramm-svg-icon' viewBox='0 0 878 1024'><path d="M778.24 815.104V444.416h-76.8q11.264 35.84 11.264 74.752 0 72.704-36.864 133.12t-99.328 96.256-137.216 35.84q-112.64 0-192.512-77.824t-79.872-187.392q0-38.912 11.264-74.752H97.28v370.688q0 14.336 10.24 24.576t25.6 10.24h610.304q14.336 0 24.576-10.24t10.24-24.576zM616.448 509.952q0-70.656-52.224-120.832t-124.928-50.176-123.904 50.176-52.224 120.832 52.224 120.832 123.904 50.176q73.728 0 124.928-50.176t52.224-120.832zM778.24 304.128V209.92q0-15.36-11.264-27.648t-27.648-11.264H638.976q-16.384 0-27.648 11.264t-11.264 27.648v94.208q0 17.408 11.264 28.672t27.648 11.264h100.352q16.384 0 27.648-11.264t11.264-28.672zm99.328-118.784v653.312q0 46.08-32.768 78.848t-79.872 33.792H112.64q-46.08 0-79.872-33.792T0 838.656V185.344q0-46.08 32.768-78.848t79.872-33.792h652.288q46.08 0 79.872 33.792t32.768 78.848z"></path></symbol><symbol id='play-svg-icon' viewBox='0 0 804 1024'><path d="M790.528 529.408L31.744 951.296q-13.312 7.168-22.528 2.048T0 932.864V91.136Q0 76.8 9.216 70.656t22.528 2.048l758.784 421.888Q803.84 501.76 803.84 512t-13.312 17.408z"></path></symbol><symbol id='facebook-svg-icon' viewBox='0 0 14 14'><path d="M7.873 14H5.25V7H3.5V4.588h1.75l-.003-1.422C5.247 1.198 5.78 0 8.1 0h1.93v2.413H8.822c-.903 0-.946.337-.946.966l-.004 1.204h2.17L9.787 7H7.875l-.002 7z"></path></symbol><symbol id='volume-up-svg-icon' viewBox='0 0 950 1024'><path d="M439.296 200.704v622.592q0 14.336-11.264 25.6t-25.6 10.24-25.6-10.24L186.368 658.432H36.864q-15.36 0-25.6-11.264T0 621.568V402.432q0-15.36 11.264-25.6t25.6-11.264h149.504l190.464-190.464q10.24-10.24 25.6-10.24t25.6 10.24 11.264 25.6zM658.432 512q0 43.008-24.576 80.896t-64.512 53.248q-5.12 3.072-14.336 3.072-14.336 0-25.6-10.24t-10.24-26.624q0-12.288 6.144-20.48t17.408-14.336 19.456-12.288 16.384-20.48T584.704 512t-6.144-32.768-16.384-20.48-19.456-12.288-17.408-14.336-6.144-20.48q0-15.36 10.24-26.624t25.6-10.24q9.216 0 14.336 3.072 39.936 15.36 64.512 53.248T658.432 512zm146.432 0q0 87.04-49.152 161.792t-128 107.52q-8.192 3.072-14.336 3.072-15.36 0-26.624-11.264t-10.24-25.6q0-22.528 21.504-33.792 32.768-16.384 44.032-25.6 41.984-30.72 65.536-76.8T731.136 512t-23.552-99.328-65.536-76.8q-11.264-9.216-44.032-25.6-21.504-11.264-21.504-33.792 0-14.336 10.24-25.6t25.6-11.264q7.168 0 15.36 3.072 79.872 33.792 128 107.52T804.864 512zm146.432 0q0 131.072-72.704 241.664T685.056 915.456q-7.168 3.072-14.336 3.072-15.36 0-26.624-11.264t-10.24-25.6q0-20.48 22.528-33.792 4.096-2.048 12.288-6.144t13.312-6.144q25.6-14.336 46.08-28.672 70.656-52.224 110.592-130.048T877.568 512t-38.912-164.864-110.592-130.048q-20.48-14.336-46.08-28.672-4.096-3.072-13.312-6.144t-12.288-6.144q-22.528-13.312-22.528-33.792 0-14.336 10.24-25.6t26.624-11.264q7.168 0 14.336 3.072 120.832 52.224 193.536 161.792T951.296 512z"></path></symbol><symbol id='linkedin-svg-icon' viewBox='0 0 878 1024'><path d="M199.68 357.376v566.272H11.264V357.376H199.68zm12.288-175.104q0 41.984-29.696 69.632t-76.8 27.648h-1.024q-47.104 0-75.776-27.648T0 182.272t29.696-69.632 76.8-27.648 75.776 27.648 29.696 69.632zm665.6 416.768v324.608H690.176V620.544q0-60.416-23.552-94.208t-72.704-33.792q-35.84 0-59.392 19.456t-36.864 49.152q-6.144 17.408-6.144 46.08v316.416H303.104q1.024-228.352 1.024-369.664t0-168.96l-1.024-27.648H491.52v81.92h-1.024q11.264-18.432 23.552-31.744t31.744-29.696 50.176-24.576 65.536-9.216q97.28 0 156.672 64.512t59.392 190.464z"></path></symbol><symbol id='twitter-svg-icon' viewBox='0 0 950 1024'><path d="M925.696 233.472q-37.888 55.296-92.16 95.232v23.552q0 74.752-21.504 148.48t-65.536 142.336T641.024 762.88t-147.456 83.968-185.344 30.72q-154.624 0-282.624-82.944 19.456 3.072 44.032 3.072 129.024 0 229.376-78.848-60.416-2.048-107.52-36.864t-65.536-91.136q19.456 2.048 34.816 2.048 24.576 0 49.152-6.144-64.512-13.312-106.496-63.488T61.44 405.504v-2.048q38.912 21.504 83.968 23.552-37.888-25.6-60.416-65.536t-22.528-88.064q0-50.176 25.6-93.184Q157.696 265.216 256 316.416t212.992 56.32q-5.12-21.504-5.12-41.984 0-76.8 54.272-130.048t130.048-54.272q80.896 0 135.168 58.368 62.464-12.288 116.736-45.056-20.48 65.536-80.896 102.4 53.248-6.144 106.496-28.672z"></path></symbol><symbol id='pause-svg-icon' viewBox='0 0 878 1024'><path d="M877.568 109.568v804.864q0 14.336-10.24 25.6t-26.624 11.264h-291.84q-15.36 0-25.6-11.264T512 914.432V109.568q0-14.336 11.264-25.6t25.6-11.264h291.84q15.36 0 26.624 11.264t10.24 25.6zm-512 0v804.864q0 14.336-10.24 25.6t-26.624 11.264H36.864q-15.36 0-25.6-11.264T0 914.432V109.568q0-14.336 11.264-25.6t25.6-11.264h291.84q15.36 0 26.624 11.264t10.24 25.6z"></path></symbol><symbol id='menu-svg-icon' viewBox='0 0 878 1024'><path d="M877.568 768v72.704q0 15.36-10.24 25.6t-26.624 11.264H36.864q-15.36 0-25.6-11.264T0 840.704V768q0-15.36 11.264-25.6t25.6-11.264h803.84q15.36 0 26.624 11.264t10.24 25.6zm0-292.864v73.728q0 14.336-10.24 25.6t-26.624 10.24H36.864q-15.36 0-25.6-10.24T0 548.864v-73.728q0-14.336 11.264-25.6t25.6-10.24h803.84q15.36 0 26.624 10.24t10.24 25.6zm0-291.84V256q0 15.36-10.24 25.6t-26.624 11.264H36.864q-15.36 0-25.6-11.264T0 256v-72.704q0-15.36 11.264-26.624t25.6-10.24h803.84q15.36 0 26.624 10.24t10.24 26.624z"></path></symbol><symbol id='apple-svg-icon' viewBox='0 0 804 1024'><path d="M795.648 694.272q-21.504 71.68-69.632 142.336-73.728 112.64-147.456 112.64-27.648 0-79.872-18.432-49.152-18.432-86.016-18.432-34.816 0-80.896 19.456-47.104 19.456-75.776 19.456-87.04 0-172.032-148.48Q0 653.312 0 515.072 0 385.024 64.512 302.08t162.816-82.944q40.96 0 100.352 17.408t78.848 17.408q25.6 0 81.92-19.456 58.368-19.456 99.328-19.456 67.584 0 121.856 36.864 29.696 20.48 59.392 57.344-46.08 37.888-65.536 67.584-36.864 53.248-36.864 117.76 0 71.68 38.912 128t90.112 71.68zM581.632 23.552q0 34.816-17.408 77.824-16.384 43.008-53.248 78.848-30.72 30.72-61.44 41.984-20.48 6.144-59.392 9.216 2.048-84.992 45.056-146.432Q477.184 23.552 577.536 0q1.024 2.048 2.048 6.144t1.024 6.144v6.144q0 3.072 1.024 5.12z"></path></symbol></svg>