<svg xmlns="http://www.w3.org/2000/svg" xmlns:xlink="http://www.w3.org/1999/xlink" id="rwpod-sprite" style="display:none"><symbol id='github-svg-icon' viewBox='0 0 950 1024'><path d="M365.568 695.296q0 22.528-7.168 46.08t-24.576 44.032-40.96 19.456-41.984-19.456-24.576-44.032-7.168-46.08 7.168-47.104 24.576-44.032 41.984-19.456 40.96 19.456 24.576 44.032 7.168 47.104zm365.568 0q0 22.528-7.168 46.08t-24.576 44.032-40.96 19.456-41.984-19.456-24.576-44.032-7.168-46.08 7.168-47.104 24.576-44.032 41.984-19.456 40.96 19.456 24.576 44.032 7.168 47.104zm92.16 0q0-68.608-39.936-116.736t-106.496-48.128q-23.552 0-111.616 12.288-40.96 6.144-90.112 6.144t-89.088-6.144q-87.04-12.288-111.616-12.288-67.584 0-106.496 48.128T128 695.296q0 50.176 18.432 87.04t46.08 59.392 69.632 33.792 79.872 17.408 84.992 4.096h96.256q47.104 0 84.992-4.096t79.872-17.408 70.656-33.792 46.08-59.392 18.432-87.04zm128-101.376q0 118.784-34.816 189.44-22.528 44.032-60.416 75.776t-80.896 49.152-97.28 27.648-98.304 12.288-95.232 3.072q-44.032 0-80.896-2.048t-83.968-7.168-87.04-17.408T153.6 896t-68.608-47.104T35.84 783.36Q0 712.704 0 593.92q0-135.168 77.824-226.304-15.36-46.08-15.36-96.256 0-66.56 28.672-124.928 62.464 0 108.544 22.528t108.544 70.656q83.968-20.48 176.128-20.48 84.992 0 159.744 18.432 60.416-47.104 107.52-68.608t107.52-22.528q29.696 58.368 29.696 124.928 0 49.152-15.36 95.232 77.824 92.16 77.824 227.328z"></path></symbol><symbol id='close-svg-icon' viewBox='0 0 50 50'><path d="M37.304 11.282l1.414 1.414-26.022 26.02-1.414-1.413z"></path><path d="M12.696 11.282l26.022 26.02-1.414 1.415-26.022-26.02z"></path></symbol><symbol id='menu-svg-icon' viewBox='0 0 878 1024'><path d="M877.568 768v72.704q0 15.36-10.24 25.6t-26.624 11.264H36.864q-15.36 0-25.6-11.264T0 840.704V768q0-15.36 11.264-25.6t25.6-11.264h803.84q15.36 0 26.624 11.264t10.24 25.6zm0-292.864v73.728q0 14.336-10.24 25.6t-26.624 10.24H36.864q-15.36 0-25.6-10.24T0 548.864v-73.728q0-14.336 11.264-25.6t25.6-10.24h803.84q15.36 0 26.624 10.24t10.24 25.6zm0-291.84V256q0 15.36-10.24 25.6t-26.624 11.264H36.864q-15.36 0-25.6-11.264T0 256v-72.704q0-15.36 11.264-26.624t25.6-10.24h803.84q15.36 0 26.624 10.24t10.24 26.624z"></path></symbol><symbol id='apple-svg-icon' viewBox='0 0 804 1024'><path d="M795.648 694.272q-21.504 71.68-69.632 142.336-73.728 112.64-147.456 112.64-27.648 0-79.872-18.432-49.152-18.432-86.016-18.432-34.816 0-80.896 19.456-47.104 19.456-75.776 19.456-87.04 0-172.032-148.48Q0 653.312 0 515.072 0 385.024 64.512 302.08t162.816-82.944q40.96 0 100.352 17.408t78.848 17.408q25.6 0 81.92-19.456 58.368-19.456 99.328-19.456 67.584 0 121.856 36.864 29.696 20.48 59.392 57.344-46.08 37.888-65.536 67.584-36.864 53.248-36.864 117.76 0 71.68 38.912 128t90.112 71.68zM581.632 23.552q0 34.816-17.408 77.824-16.384 43.008-53.248 78.848-30.72 30.72-61.44 41.984-20.48 6.144-59.392 9.216 2.048-84.992 45.056-146.432Q477.184 23.552 577.536 0q1.024 2.048 2.048 6.144t1.024 6.144v6.144q0 3.072 1.024 5.12z"></path></symbol></svg>