<svg height="216" viewBox="0 0 216 216" width="216" xmlns="http://www.w3.org/2000/svg"><g fill="none"><path d="m202.248585 52.3100136-88 67.1300004c-3.842445 2.91697-9.157554 2.91697-13 0l-87.9999995-67.1300004c-3.65734776-2.777855-5.14602611-7.5723524-3.70521704-11.9331711 1.44080904-4.3608187 5.49283744-7.3246736 10.08521704-7.3768289h176.0999995c4.618042-.0073142 8.724771 2.9356381 10.202109 7.3110048s-.004848 9.20541-3.682109 11.9989952z" fill="#282c34" stroke="#48494d" stroke-width="9.43"/><g fill="#29b784"><path d="m197.28 26h-178.95c-10.1188102.0110227-18.31897732 8.2111898-18.33 18.33v128c.01102268 10.11881 8.2111898 18.318977 18.33 18.33h126.14c3.330277 0 6.03-2.699723 6.03-6.03s-2.699723-6.03-6.03-6.03h-126.14c-3.4605421-.005506-6.264494-2.809458-6.27-6.27v-113.27l85.57 65.24c6.009383 4.58256 14.340617 4.58256 20.35 0l85.56-65.24v113.28c-.005506 3.460542-2.809458 6.264494-6.27 6.27h-25c-2.154312 0-4.144978 1.149311-5.222133 3.015-1.077156 1.865688-1.077156 4.164312 0 6.03 1.077155 1.865689 3.067821 3.015 5.222133 3.015h25c10.11881-.011023 18.318977-8.21119 18.33-18.33v-128c-.005501-10.1188168-8.201195-18.3234585-18.32-18.34zm1.46 21.59-88 67.13c-1.69152 1.291969-4.03848 1.291969-5.73 0l-88-67.13c-1.5856855-1.2169073-2.2352671-3.2992062-1.6227399-5.2018549.6125272-1.9026488 2.354926-3.214888 4.3527399-3.2781451h176.1c2.028765-.0074051 3.836313 1.2797934 4.49279 3.1994231s.015663 4.0441223-1.59279 5.2805769z"/><path d="m56 108.14c0-28.7961269 23.3438731-52.14 52.14-52.14 28.796127 0 52.14 23.3438731 52.14 52.14 0 28.796127-23.343873 52.14-52.14 52.14-28.7961269 0-52.14-23.343873-52.14-52.14z"/><path d="m107.88 166.76c-31.9662413 0-57.88-25.913759-57.88-57.88 0-31.9662413 25.9137587-57.88 57.88-57.88 31.966241 0 57.88 25.9137587 57.88 57.88-.033071 31.952533-25.927467 57.846929-57.88 57.88zm0-104.29c-25.6315352 0-46.41 20.7784648-46.41 46.41 0 25.631535 20.7784648 46.41 46.41 46.41 25.631535 0 46.41-20.778465 46.41-46.41-.033055-25.6178308-20.792169-46.3769447-46.41-46.41z"/></g><path d="m136.91792 88.684132c1.081474 1.080377 1.689131 2.5463408 1.689131 4.075s-.607657 2.994623-1.689131 4.075l-30.72 30.72c-1.080377 1.081473-2.546341 1.689131-4.075 1.689131s-2.9946227-.607658-4.0749997-1.689131l-15.36-15.36c-2.2505604-2.25056-2.2505604-5.89944 0-8.15 2.2505603-2.25056 5.8994396-2.25056 8.15 0l11.2899997 11.29 26.65-26.65c2.248747-2.2455093 5.891253-2.2455093 8.14 0z" fill="#fff"/></g></svg>