<?xml version="1.0" encoding="UTF-8"?>
<svg width="258px" height="195px" viewBox="0 0 258 195" version="1.1" xmlns="http://www.w3.org/2000/svg" xmlns:xlink="http://www.w3.org/1999/xlink">
    <g id="Page-1" stroke="none" stroke-width="1" fill="none" fill-rule="evenodd">
        <g id="big_logo">
            <polygon id="Shape" fill="#087C78" points="34.5 48.8 0.5 48.8 15.5 97 0.5 146.2 34.5 146.2"></polygon>
            <polygon id="Shape" fill="#087C78" points="223.9 48.8 257.9 48.8 242.9 97 257.9 146.2 223.9 146.2 223.9 48.8"></polygon>
            <polygon id="Shape" fill="#E2DBCB" fill-rule="nonzero" points="129.6 195 41.1 146.2 41.1 48.8 129.6 0 218 48.8 218 146.3"></polygon>
            <polygon id="Shape" fill="#DDD7CA" fill-rule="nonzero" points="87.6 171.6 41.1 98.6 84.4 24.9 167.3 20.9 218 92.6 179.3 167.2"></polygon>
            <polygon id="Shape" fill="#D8D2C5" fill-rule="nonzero" points="66.3 138.3 62.8 62 127.5 22.9 191.7 55.3 197 133.2 134.2 169.3"></polygon>
            <polygon id="Shape" fill="#D3CDC1" fill-rule="nonzero" points="64.5 100.4 93.1 43.6 158.6 38.3 194.2 93.8 166.2 150.9 101.9 154.6"></polygon>
            <polygon id="Shape" fill="#CEC8BE" fill-rule="nonzero" points="79 71.8 125.4 41 176.1 65.8 180 122.8 135.5 152.7 83.1 127.4"></polygon>
            <polygon id="Shape" fill="#C9C3BC" fill-rule="nonzero" points="101.4 56.9 151.3 53.8 178 92.2 156.6 138.6 106.4 138.6 81.2 100.4"></polygon>
            <g id="Page-1_2_" transform="translate(72.000000, 53.000000)">
                <g id="Logo_2_">
                    <g id="RW_2_">
                        <path d="M38.1,51.7 L53.9,93.7 L36.4,93.7 L1.4,0.5 L14.5,0.5 L30.6,0.5 C45,0.7 56.6,12.3 56.6,26.7 C56.5,38.5 48.8,48.4 38.1,51.7 Z" id="Combined-Shape_12_-path" fill="#9B948E"></path>
                        <path d="M31.9,35.3 C35.9,34.5 39,31 39,26.7 C39,21.9 35.1,18 30.2,18 L25.4,18 L31.9,35.3 Z" id="Combined-Shape_12_" fill="#C9C3BC" fill-rule="nonzero"></path>
                        <path d="M30.2,0.5 C44.7,0.5 56.5,12.2 56.5,26.7 C56.5,41.2 44.7,52.9 30.2,52.9 L30.2,35.4 C35,35.4 39,31.5 39,26.7 C39,21.9 35.1,18 30.2,18 L30.2,0.5 Z" id="Combined-Shape_12_-path" fill="#9B948E"></path>
                        <polygon id="Rectangle-Copy-2_16_" fill="#9B948E" fill-rule="nonzero" points="71.4 52.9 53.9 52.9 36.3 93.7 53.9 93.7"></polygon>
                        <polygon id="Rectangle-Copy-4_16_" fill="#9B948E" fill-rule="nonzero" points="53.9 52.9 71.4 52.9 89.1 93.8 71.6 93.8"></polygon>
                        <polygon id="Rectangle-Copy-3_16_" fill="#9B948E" fill-rule="nonzero" points="124.2 0.5 106.6 0.5 71.6 93.7 89.1 93.7"></polygon>
                        <rect id="Rectangle_16_" fill="#9B948E" fill-rule="nonzero" x="0" y="52.9" width="17.5" height="40.9"></rect>
                    </g>
                </g>
            </g>
            <g id="Page-1" transform="translate(69.000000, 50.000000)" fill-rule="nonzero">
                <g id="Logo">
                    <g id="RW">
                        <path d="M38.7,52 C39.3,51.8 39.8,51.6 40.4,51.4 C40.5,51.4 40.6,51.3 40.7,51.3 C41.3,51.1 41.8,50.8 42.3,50.6 C42.4,50.5 42.5,50.5 42.6,50.4 C43.1,50.1 43.6,49.9 44.1,49.6 C44.1,49.6 44.2,49.5 44.2,49.5 C44.7,49.2 45.2,48.9 45.7,48.5 C45.8,48.4 45.9,48.4 46,48.3 C46.5,48 47,47.6 47.4,47.2 C47.5,47.1 47.5,47.1 47.6,47 C48,46.6 48.4,46.3 48.8,45.9 C48.9,45.8 48.9,45.8 49,45.7 C49.4,45.3 49.8,44.9 50.2,44.4 C50.3,44.3 50.4,44.2 50.4,44.1 C50.8,43.6 51.2,43.2 51.5,42.7 C51.5,42.7 51.5,42.7 51.5,42.7 C51.9,42.2 52.2,41.7 52.5,41.2 C52.6,41.1 52.6,41 52.7,40.9 C53,40.4 53.3,39.9 53.6,39.4 C53.7,39.3 53.7,39.2 53.8,39.1 C54.1,38.6 54.3,38.1 54.5,37.6 C54.5,37.5 54.6,37.5 54.6,37.4 C54.8,36.8 55.1,36.3 55.3,35.7 C55.3,35.6 55.4,35.5 55.4,35.3 C55.6,34.7 55.8,34.1 55.9,33.5 C55.9,33.4 55.9,33.3 56,33.3 C56.1,32.7 56.3,32.2 56.4,31.6 C56.4,31.5 56.4,31.4 56.5,31.3 C56.6,30.7 56.7,30.1 56.7,29.4 C56.7,29.3 56.7,29.1 56.7,29 C56.7,28.4 56.8,27.7 56.8,27 C56.8,26.5 56.8,26.1 56.8,25.7 C56.8,25.5 56.8,25.4 56.8,25.2 C56.8,24.9 56.8,24.6 56.7,24.3 C56.7,24.1 56.7,24 56.6,23.8 C56.6,23.5 56.5,23.3 56.5,23 C56.5,22.8 56.4,22.6 56.4,22.4 C56.4,22.2 56.3,21.9 56.3,21.7 C56.3,21.5 56.2,21.3 56.2,21.1 C56.1,20.9 56.1,20.6 56,20.4 C56,20.2 55.9,20 55.8,19.8 C55.7,19.6 55.7,19.3 55.6,19.1 C55.5,18.9 55.5,18.7 55.4,18.5 C55.3,18.3 55.3,18.1 55.2,17.9 C55.1,17.7 55.1,17.5 55,17.3 C54.9,17.1 54.8,16.9 54.7,16.7 C54.6,16.5 54.5,16.3 54.5,16.2 C54.4,16 54.3,15.8 54.2,15.6 C54.1,15.4 54,15.2 53.9,15.1 C53.8,14.9 53.7,14.7 53.6,14.5 C53.5,14.3 53.4,14.2 53.3,14 C53.2,13.8 53.1,13.6 53,13.4 C52.9,13.2 52.8,13.1 52.7,12.9 C52.6,12.7 52.5,12.5 52.3,12.3 C52.2,12.1 52.1,12 52,11.8 C51.9,11.6 51.7,11.4 51.6,11.3 C51.5,11.1 51.4,11 51.2,10.8 C51.1,10.6 50.9,10.4 50.8,10.3 C50.7,10.2 50.5,10 50.4,9.9 C50.3,9.7 50.1,9.6 50,9.4 C49.9,9.3 49.7,9.1 49.6,9 C49.4,8.8 49.3,8.7 49.1,8.5 C49,8.4 48.8,8.2 48.7,8.1 C48.5,7.9 48.4,7.8 48.2,7.6 C48.1,7.5 47.9,7.4 47.8,7.2 C47.6,7 47.5,6.9 47.3,6.7 C47.2,6.6 47,6.5 46.9,6.3 C46.7,6.2 46.5,6 46.4,5.9 C46.3,5.8 46.1,5.7 45.9,5.6 C45.7,5.5 45.5,5.3 45.3,5.2 C45.1,5.1 45,5 44.8,4.9 C44.6,4.8 44.4,4.6 44.2,4.5 C44,4.4 43.9,4.3 43.7,4.2 C43.5,4.1 43.3,4 43.1,3.8 C42.9,3.7 42.8,3.6 42.6,3.6 C42.4,3.5 42.2,3.4 41.9,3.3 C41.7,3.2 41.6,3.2 41.4,3.1 C41.2,3 41,2.9 40.7,2.8 C40.5,2.7 40.4,2.7 40.2,2.6 C40,2.5 39.7,2.4 39.5,2.3 C39.3,2.2 39.2,2.2 39,2.1 C38.8,2 38.5,1.9 38.3,1.9 C38.1,1.8 38,1.8 37.8,1.8 C37.6,1.7 37.3,1.7 37,1.6 C36.8,1.6 36.7,1.5 36.5,1.5 C36.2,1.4 36,1.4 35.7,1.3 C35.5,1.3 35.4,1.2 35.2,1.2 C34.9,1.2 34.7,1.1 34.4,1.1 C34.2,1.1 34.1,1.1 33.9,1 C33.6,1 33.4,0.9 33.1,0.9 C32.9,0.9 32.8,0.9 32.6,0.9 C32.3,0.9 32,0.9 31.8,0.8 C31.6,0.8 31.5,0.8 31.3,0.8 C31.1,0.8 30.8,0.8 30.6,0.8 L15,0.8 L1.9,0.8 L36.9,94 L54.4,94 L38.7,52 C38.7,52.1 38.7,52 38.7,52 Z M30.8,18.3 C35.6,18.3 39.6,22.2 39.6,27 C39.6,27.3 39.6,27.6 39.6,27.8 C39.6,27.9 39.6,28 39.6,28.1 C39.6,28.3 39.6,28.5 39.5,28.7 C39.5,28.8 39.5,28.9 39.4,29 C39.4,29.2 39.3,29.3 39.3,29.5 C39.3,29.6 39.2,29.7 39.2,29.8 C39.1,30 39.1,30.1 39,30.3 C39,30.4 38.9,30.5 38.9,30.6 C38.8,30.7 38.8,30.9 38.7,31 C38.7,31.1 38.6,31.2 38.6,31.3 C38.5,31.4 38.4,31.6 38.3,31.7 C38.2,31.8 38.2,31.9 38.1,31.9 C38,32.1 37.9,32.2 37.7,32.4 C37.7,32.4 37.6,32.5 37.6,32.5 C37.4,32.7 37.3,32.9 37.1,33.1 C37,33.2 37,33.2 36.9,33.2 C36.8,33.3 36.6,33.5 36.5,33.6 C36.4,33.7 36.3,33.7 36.3,33.8 C36.2,33.9 36,34 35.9,34.1 C35.8,34.2 35.7,34.2 35.6,34.3 C35.5,34.4 35.3,34.5 35.2,34.5 C35.1,34.6 35,34.6 34.9,34.7 C34.8,34.8 34.6,34.8 34.5,34.9 C34.4,34.9 34.3,35 34.2,35 C34,35.1 33.9,35.1 33.7,35.2 C33.6,35.2 33.5,35.3 33.4,35.3 C33.2,35.4 33,35.4 32.8,35.4 C32.7,35.4 32.6,35.4 32.6,35.5 C32.6,35.5 32.6,35.5 32.6,35.5 L26,18.3 L30.8,18.3 Z" id="Shape" fill="#A53719"></path>
                        <polygon id="Rectangle-Copy-2_14_" fill="#087C78" points="71.9 53.3 54.4 53.3 36.9 94 54.4 94"></polygon>
                        <polygon id="Rectangle-Copy-4_14_" fill="#2DAAA1" points="54.4 53.3 71.9 53.3 89.7 94.1 72.1 94.1"></polygon>
                        <polygon id="Rectangle-Copy-3_14_" fill="#087C78" points="124.7 0.8 107.2 0.8 72.1 94 89.7 94"></polygon>
                        <rect id="Rectangle_14_" fill="#A53719" x="0.6" y="53.3" width="17.5" height="40.9"></rect>
                    </g>
                </g>
            </g>
        </g>
    </g>
</svg>
